<svg xmlns="http://www.w3.org/2000/svg" viewBox="0 0 740.65 200"><defs><style>.cls-1,.cls-3{fill:#343f8b;}.cls-1{stroke:#343f8b;stroke-miterlimit:10;stroke-width:15px;}.cls-2{fill:#6bd7fd;}.cls-4{fill:#c7b7fd;}.cls-5{fill:#515393;}.cls-6{fill:#7969af;}.cls-7{fill:#6679fd;}.cls-8{fill:#fdfb93;}.cls-9{fill:#ad947b;}.cls-10{fill:#fff;}</style></defs><g id="Layer_2" data-name="Layer 2"><g id="Layer_1-2" data-name="Layer 1"><path class="cls-1" d="M356.89,152.58h-99l-.09-33.91,40.46-46H266l-7.91-34.34H357l.08,34.25v.09H357l-40,45.55h32Z"/><path class="cls-1" d="M410.1,77.45H458v36H410.1v4.75H458v34.34H361.31V38.35h96.55L458,72.69H410.1Z"/><path class="cls-1" d="M559.26,105.07a24.59,24.59,0,0,1,5.78,1.7,21.64,21.64,0,0,1,6,3.49q6.54,5.52,6.55,14.78v27.54h-48.7v-22.1a13,13,0,0,0-2.81-8.67,12,12,0,0,0-6.12-3.74,21.27,21.27,0,0,0-9-.76V152.5H462.2V38.35H537q40.37,0,41.82,36.72Q579.23,96.49,559.26,105.07ZM520.33,84a11.57,11.57,0,0,0,7.06-2.12,6.23,6.23,0,0,0,2.89-5.1,6.3,6.3,0,0,0-2.89-5.19,12,12,0,0,0-7.14-2.12h-9.1V84Z"/><path class="cls-1" d="M632.27,77.45h47.85v36H632.27v4.75h47.85v34.34H583.48V38.35H680l.09,34.34H632.27Z"/><path class="cls-1" d="M684.36,38.35h48.79V152.58H684.36Z"/><circle class="cls-2" cx="104.45" cy="100" r="100"/><path class="cls-3" d="M152.55,30.52c12,3.65,23.63,8.15,32.22,17.92,7.64,8.72,12,19.36,17,29.62,3.76,7.71,2,14.93-1.49,22.1l-1.27.17c-3.7,2.25-7.44,4.25-11.87,4.83-12.4,1.61-24.9,1.61-37.35,2.53C132,109,114,109.29,96.17,110.86a186.58,186.58,0,0,1-24,.62c-18.19-.78-32.4-8.74-42.7-23.52-5.22-7.48-9.16-15.73-12.86-24.08-.39-.87-.33-2.23-1.79-2.3s-1.63,1.19-2.28,1.94C11,65.26,11,68.39,7.76,68.58c-.33-2.67.24-5.25.66-7.85l0,0c.66-.37.85-.8.12-1.3,2.41-4,4.83-7.91,7.22-11.88C20,40.48,26.58,37.33,34.6,36.87q8.86-.51,17.73-.68a10.41,10.41,0,0,0,4.57-1.48c1.19,1.13,2.67.7,4,.64,14-.63,27.93-2,41.94-2.11,4,0,7.9-.57,11.86-.81,10.82-.65,21.64-1.25,32.47-1.88C149,30.45,150.77,32.06,152.55,30.52ZM86.46,76.88a.6.6,0,0,0,.44-.39c2.35-5.08-2.9-14.14-8.42-13.57-8.24.84-14.14-.53-17.11-9.54-1.57-4.78-6.88-4.92-11.53-4.51-2.35.21-4.41.75-5,3.49a5.92,5.92,0,0,0-1.27,7.25c.66,1.45,1.08,3,1.61,4.54l-4.11.14c-2.32.07-4.41.43-4.62,3.38-2.7,2.33-2.38,5-1,7.9,1.73,3.69,4.25,7.31,8.43,6.83,8.49-1,13.64,1.83,17.11,9.85,2.12,4.89,7.57,4.46,12.39,3.68,2.54-.41,4-1.58,4.55-4.06,1.81-1.2,1.88-2.82,1.08-4.6s-1.77-3.78-2.66-5.67c3.57-1.09,8.5.72,10.06-4.69Zm53.4-14.33A24.66,24.66,0,0,0,138,65.84c-1.18,3.14,1.07,6.82,5.19,8.22,3.13,1.07,6.3,1.62,7.58-2.74h0l1-.68c2.75-3.91.13-6.39-2.58-8.46C145.21,59.15,142.53,59.41,139.86,62.55Zm9-12c-.44.35-1,.62-1.3,1.08-2,3.69.1,5.92,3,7.74,4.34,2.72,7.19,2,9.81-2.26,2.46-3.46,2-6-1.81-8.8-4-3-7-2.81-9.66.61-.07.06-.21.12-.21.18a3.07,3.07,0,0,0,.14.52Zm20.67,36.91c1.21-.14,3.3-.53,3.57-2.42s-1.92-.92-2.93-1.23a12.29,12.29,0,0,1-6.85-5c-.35-.52-.29-1.64-1.19-1.36-.51.16-.89,1-1.16,1.65C159.5,82.43,164.16,87.32,169.52,87.45ZM171.44,63c-2.7,3-1.95,5.51.41,7.66,2.54,2.32,5.45,3.74,8.91,2.12a3.5,3.5,0,0,0,1.57-2.14c.17-.67-.81-.62-1.35-.63C176.33,70,173.4,67.47,171.44,63Z"/><path class="cls-3" d="M37.09,155c-2.5-2.56-3.68-5.92-5.29-9Q18,119.84,4.5,93.56C3.38,91.4,2.63,89,1.71,86.78c1.8,0,2.56-1.24,3.43-2.56C6.72,81.83,7.24,78.75,9.8,77L21.1,98.75l.75,1.36,0,0,.74.75,0,0,.73,1.44v0l.71,1.43v0c1.69,4.46,3.21,8.93,8.45,10.77a25.32,25.32,0,0,1,4.4,2.63c3.55,2.22,7.08,5.13,11.84,4.08l1.24.05c.2,1.12.54,1.85,1.62.62l1.92.16c.38,2,2,1.26,3.17,1.38,14.68.66,29.27-1.41,43.93-1.29a14.92,14.92,0,0,0-2.1,9.76q-12.75.34-25.52.69c-2.34.06-4.72-.25-7,.12-8.85,1.43-17.3,0-25.56-3.13-.88-.34-1.86-.89-2.59,0s.18,1.52.5,2.22a96.59,96.59,0,0,0,7.5,13.44c-1.58.91-2.4,2.44-3.44,3.85C40.7,151,40.49,154.42,37.09,155Z"/><path class="cls-3" d="M199,100.33l1.27-.17Q208,115,215.69,129.89c2.63,5,3.23,9.92-.8,14.57-6.07,2.21-12.43,2.55-18.8,2.83a60.27,60.27,0,0,0-6.6.41c-16.06,2.81-29.76-4.93-35.58-20.19,2.53-.22,5.07-.48,7.61-.67,6.41-.46,12.86-.45,19-2.87,6.72-2.65,11.57-7,13.46-14.16C195.55,106.58,198.31,104,199,100.33Z"/><path class="cls-3" d="M169.53,160.4c-10.56-2.83-17.79-9.25-22.67-19.13-3.23-6.57-9.62-9.26-17-8.93-9.79.43-19.58,1-29.37,1.51l-2.1-2.1a14.92,14.92,0,0,1,2.1-9.76l42.25-2.16a38.88,38.88,0,0,1,11.15,7.68c5.82,15.26,19.52,23,35.58,20.19a60.27,60.27,0,0,1,6.6-.41c1.52,4.53,6,6.66,8.45,10.43-6.64,2.25-13.6,1.35-20.4,2C179.29,160.2,174.4,160.19,169.53,160.4Z"/><path class="cls-3" d="M37.09,155c3.4-.59,3.61-4,5.21-6.11,1-1.41,1.86-2.94,3.44-3.85,6.44,5.85,13.83,9.47,22.7,9.14s17.64-.9,26.46-1.37c-.74,1-2.33,1.4-2.08,3,.45,2.86-1.16,5.08-2.11,7.52-1.28.48-2.53,1.29-3.84,1.39-11.65.85-23.3,2.25-35,1C46.2,163.16,40.55,160.59,37.09,155Z"/><path class="cls-3" d="M9.8,77c-2.56,1.76-3.08,4.84-4.66,7.23-.87,1.32-1.63,2.58-3.43,2.56a17.47,17.47,0,0,1-.24-14.56,36.67,36.67,0,0,1,7-11.49c-.42,2.6-1,5.18-.66,7.85C7.54,71.6,9.21,74.16,9.8,77Z"/><path class="cls-3" d="M204.54,157.72c-2.46-3.77-6.93-5.9-8.45-10.43,6.37-.28,12.73-.62,18.8-2.83C211.7,149.08,210.52,155.27,204.54,157.72Z"/><path class="cls-3" d="M8.52,59.47c.73.5.54.93-.12,1.3Z"/><path class="cls-3" d="M61.19,173.27l.69.45Z"/><path class="cls-3" d="M9.8,77c-.59-2.83-2.26-5.39-2-8.41,3.19-.19,3.21-3.32,4.73-5.06.65-.75.94-2,2.28-1.94s1.4,1.43,1.79,2.3c3.7,8.35,7.64,16.6,12.86,24.08,10.3,14.78,24.51,22.74,42.7,23.52a186.58,186.58,0,0,0,24-.62C114,109.29,132,109,149.8,107.69c12.45-.92,24.95-.92,37.35-2.53,4.43-.58,8.17-2.58,11.87-4.83-.71,3.67-3.47,6.25-5,9.48-6.14,6.71-14.19,8.32-22.78,8.56s-17.46.53-26.19.81c-.81,0-1.66-.09-2.26.65L100.51,122c-14.66-.12-29.25,2-43.93,1.29a4.86,4.86,0,0,0-3.17-1.38l-1.92-.16-1.62-.62-1.24-.05c-5.09-3-10.43-5.44-15.13-9.11-3.35-2.63-5.38-6.73-9.56-8.37v0a1.08,1.08,0,0,0-.71-1.43v0c-.24-.48-.48-1-.73-1.44l0,0-.74-.75,0,0-.75-1.36Z"/><path class="cls-3" d="M86.46,76.88a.68.68,0,0,1,.45-.39A.63.63,0,0,1,86.46,76.88Z"/><path class="cls-3" d="M150.77,71.33l1-.68Z"/><path class="cls-3" d="M148.88,48.91c0,.23,0,.47-.07.7a3.07,3.07,0,0,1-.14-.52C148.67,49,148.81,49,148.88,48.91Z"/><path class="cls-3" d="M94.9,152.82c-8.82.47-17.64,1.05-26.46,1.37s-16.26-3.29-22.7-9.14a96.59,96.59,0,0,1-7.5-13.44c-.32-.7-1.13-1.49-.5-2.22s1.71-.3,2.59,0c8.26,3.11,16.71,4.56,25.56,3.13,2.28-.37,4.66-.06,7-.12q12.77-.33,25.52-.69l2.1,2.1c.54,3.41,2.66,6.4,2.25,10.13-.25,2.3-.57,4.35-2.2,6.05l-.74.75,0,0Z"/><path class="cls-3" d="M23.94,103.59c4.18,1.64,6.21,5.74,9.56,8.37,4.7,3.67,10,6.15,15.13,9.11-4.76,1.05-8.29-1.86-11.84-4.08a25.32,25.32,0,0,0-4.4-2.63C27.15,112.52,25.63,108.05,23.94,103.59Z"/><path class="cls-3" d="M53.41,121.9a4.86,4.86,0,0,1,3.17,1.38C55.38,123.16,53.79,123.91,53.41,121.9Z"/><path class="cls-3" d="M49.87,121.12l1.62.62C50.41,123,50.07,122.24,49.87,121.12Z"/><path class="cls-3" d="M21.1,98.75l.75,1.36Z"/><path class="cls-3" d="M22.52,100.78c.25.48.49,1,.73,1.44C23,101.74,22.77,101.26,22.52,100.78Z"/><path class="cls-3" d="M23.24,102.19a1.08,1.08,0,0,1,.71,1.43C23.71,103.15,23.47,102.67,23.24,102.19Z"/><path class="cls-3" d="M21.81,100.07l.74.75Z"/><path class="cls-3" d="M142.76,119.83c.6-.74,1.45-.63,2.26-.65q13.1-.42,26.19-.81c8.59-.24,16.64-1.85,22.78-8.56-1.89,7.19-6.74,11.51-13.46,14.16-6.15,2.42-12.6,2.41-19,2.87-2.54.19-5.08.45-7.61.67A38.88,38.88,0,0,0,142.76,119.83Z"/><path class="cls-3" d="M94.9,152.82l5-2.06a40.69,40.69,0,0,1-7.14,11.85l-2,.69c1-2.44,2.56-4.66,2.11-7.52C92.57,154.22,94.16,153.78,94.9,152.82Z"/><path class="cls-3" d="M99.82,150.78l.74-.75Z"/><path class="cls-4" d="M151.14,33.32c11.41,3.46,22.41,7.72,30.55,17,7.25,8.26,11.38,18.35,16.13,28.08,3.57,7.31,1.86,14.17-1.41,21l-1.21.16c-3.5,2.14-7,4-11.26,4.58-11.75,1.53-23.61,1.53-35.41,2.41-16.93,1.26-33.92,1.51-50.86,3a176.44,176.44,0,0,1-22.81.59c-17.26-.75-30.73-8.29-40.51-22.31C29.41,80.7,25.67,72.87,22.16,65c-.36-.83-.31-2.12-1.7-2.18s-1.54,1.12-2.16,1.84c-1.44,1.65-1.46,4.61-4.48,4.79A26.18,26.18,0,0,1,14.45,62l0,0c.63-.36.81-.76.11-1.24,2.29-3.75,4.59-7.5,6.85-11.26,4.07-6.75,10.28-9.74,17.89-10.17q8.4-.48,16.81-.64a9.81,9.81,0,0,0,4.34-1.41c1.13,1.07,2.53.66,3.81.61,13.26-.6,26.49-1.85,39.77-2,3.76,0,7.5-.55,11.25-.77q15.41-.91,30.8-1.78C147.74,33.25,149.45,34.78,151.14,33.32Zm-62.69,44a.64.64,0,0,0,.43-.37c2.22-4.82-2.76-13.42-8-12.88-7.82.8-13.41-.5-16.23-9-1.49-4.54-6.53-4.67-10.93-4.28-2.24.2-4.19.72-4.72,3.31a5.6,5.6,0,0,0-1.2,6.87c.63,1.38,1,2.87,1.52,4.31l-3.89.14c-2.21.06-4.19.4-4.39,3.2-2.55,2.21-2.25,4.74-1,7.49,1.65,3.51,4,6.93,8,6.48,8-.92,12.93,1.73,16.22,9.34,2,4.64,7.18,4.23,11.75,3.49,2.41-.38,3.84-1.5,4.32-3.85,1.71-1.14,1.77-2.68,1-4.37s-1.68-3.58-2.53-5.37c3.39-1,8.06.69,9.54-4.44Zm50.65-13.6a24,24,0,0,0-1.73,3.13c-1.12,3,1,6.46,4.92,7.79,3,1,6,1.53,7.19-2.6h0l.94-.65c2.62-3.71.12-6.06-2.44-8C144.17,60.47,141.63,60.72,139.1,63.69Zm8.52-11.39c-.42.34-1,.59-1.23,1-1.86,3.5.1,5.62,2.84,7.34,4.11,2.58,6.82,1.93,9.3-2.15,2.34-3.28,1.85-5.66-1.72-8.34-3.8-2.85-6.61-2.67-9.15.57-.07.06-.21.13-.2.18a2.3,2.3,0,0,0,.13.5Zm19.6,35c1.15-.14,3.14-.51,3.39-2.3s-1.81-.87-2.77-1.16a11.65,11.65,0,0,1-6.5-4.78c-.33-.5-.28-1.56-1.13-1.29-.49.15-.84,1-1.1,1.56C157.72,82.55,162.14,87.19,167.22,87.31Zm1.83-23.15c-2.56,2.88-1.85,5.22.39,7.26,2.4,2.2,5.17,3.55,8.45,2a3.36,3.36,0,0,0,1.49-2c.15-.64-.77-.59-1.29-.59C173.69,70.75,170.91,68.36,169.05,64.16Z"/><path class="cls-5" d="M41.63,151.38c-2.37-2.43-3.49-5.61-5-8.53Q23.58,118,10.72,93.1c-1.06-2-1.77-4.28-2.64-6.43,1.71,0,2.43-1.17,3.25-2.42,1.5-2.27,2-5.2,4.42-6.86L26.47,98l.71,1.3,0,0,.7.71,0,0,.69,1.37,0,0,.68,1.36v0c1.6,4.24,3,8.47,8,10.22a23.79,23.79,0,0,1,4.17,2.49c3.38,2.11,6.72,4.87,11.24,3.87l1.18,0c.18,1.06.5,1.76,1.53.58l1.82.16c.36,1.9,1.87,1.19,3,1.31,13.92.62,27.76-1.34,41.66-1.23a14.2,14.2,0,0,0-2,9.26l-24.2.66a49.08,49.08,0,0,0-6.65.11c-8.39,1.36-16.4,0-24.24-3-.83-.32-1.76-.84-2.45,0s.17,1.44.47,2.11a92,92,0,0,0,7.12,12.75c-1.5.86-2.28,2.31-3.27,3.64C45.06,147.61,44.86,150.82,41.63,151.38Z"/><path class="cls-6" d="M195.2,99.52l1.21-.16c4.87,9.4,9.71,18.81,14.61,28.2,2.49,4.78,3.06,9.4-.76,13.81-5.76,2.1-11.79,2.43-17.84,2.69a56.53,56.53,0,0,0-6.25.39c-15.23,2.66-28.23-4.68-33.75-19.15,2.41-.21,4.81-.46,7.22-.63,6.08-.44,12.2-.43,18-2.73,6.38-2.51,11-6.61,12.77-13.43C191.91,105.46,194.53,103,195.2,99.52Z"/><path class="cls-3" d="M167.23,156.49c-10-2.68-16.87-8.76-21.49-18.14-3.07-6.23-9.13-8.78-16.11-8.47-9.28.41-18.57,1-27.85,1.43-.66-.66-1.33-1.32-2-2a14.2,14.2,0,0,1,2-9.26l40.07-2a36.81,36.81,0,0,1,10.57,7.28c5.52,14.47,18.52,21.81,33.75,19.15a56.53,56.53,0,0,1,6.25-.39c1.45,4.3,5.69,6.32,8,9.89-6.3,2.13-12.9,1.28-19.35,1.91C176.49,156.3,171.85,156.3,167.23,156.49Z"/><path class="cls-3" d="M41.63,151.38c3.23-.56,3.43-3.77,4.94-5.8,1-1.33,1.77-2.78,3.27-3.64,6.1,5.54,13.11,9,21.52,8.67s16.73-.86,25.1-1.3c-.71.9-2.21,1.32-2,2.81.44,2.7-1.1,4.81-2,7.12a14.22,14.22,0,0,1-3.65,1.32c-11,.81-22.09,2.14-33.2,1C50.27,159.11,44.92,156.67,41.63,151.38Z"/><path class="cls-6" d="M15.75,77.39c-2.43,1.66-2.92,4.59-4.42,6.86-.82,1.25-1.54,2.44-3.25,2.42a16.57,16.57,0,0,1-.23-13.81A34.78,34.78,0,0,1,14.45,62a26.18,26.18,0,0,0-.63,7.44C13.6,72.28,15.19,74.71,15.75,77.39Z"/><path class="cls-5" d="M200.44,154c-2.33-3.57-6.57-5.59-8-9.89,6.05-.26,12.08-.59,17.84-2.69C207.23,145.76,206.11,151.63,200.44,154Z"/><path class="cls-6" d="M14.53,60.77c.7.48.52.88-.11,1.24C14.46,61.6,14.5,61.18,14.53,60.77Z"/><path class="cls-2" d="M64.49,168.7l.66.43Z"/><path class="cls-7" d="M15.75,77.39c-.56-2.68-2.15-5.11-1.93-8,3-.18,3-3.14,4.48-4.79.62-.72.9-1.9,2.16-1.84s1.34,1.35,1.7,2.18c3.51,7.91,7.25,15.74,12.19,22.83,9.78,14,23.25,21.56,40.51,22.31a176.44,176.44,0,0,0,22.81-.59c16.94-1.49,33.93-1.74,50.86-3,11.8-.88,23.66-.88,35.41-2.41,4.21-.54,7.76-2.44,11.26-4.58-.67,3.49-3.29,5.94-4.76,9-5.83,6.37-13.47,7.89-21.61,8.12s-16.56.51-24.84.77c-.76,0-1.57-.08-2.14.62l-40.07,2c-13.9-.11-27.74,1.85-41.66,1.23a4.68,4.68,0,0,0-3-1.31l-1.82-.15-1.53-.59-1.18,0c-4.83-2.8-9.9-5.15-14.35-8.64-3.18-2.49-5.11-6.38-9.07-7.94v0a1,1,0,0,0-.68-1.36l0,0L27.82,100l0,0-.7-.71,0,0c-.24-.43-.48-.86-.71-1.3Z"/><path class="cls-8" d="M41.05,68.55c.2-2.8,2.18-3.14,4.39-3.2l3.89-.14c4.86-.06,5.13-.48,2.94-4.78L49,54c.53-2.59,2.48-3.11,4.72-3.31,4.4-.39,9.44-.26,10.93,4.28,2.82,8.54,8.41,9.84,16.23,9,5.23-.54,10.21,8.06,8,12.88a.64.64,0,0,0-.43.37l0,0-7.18.11c-4.63.08-4.63.08-2.36,4.33.85,1.79,1.72,3.57,2.53,5.37s.69,3.23-1,4.36a32.73,32.73,0,0,0-5.62.27c-3.73.81-6.18-.81-8.07-3.71a16.56,16.56,0,0,1-2-3.79c-1.45-4.55-4.15-6.59-9.1-5.55-6.85,1.43-11.31-1.49-13.51-8A21.28,21.28,0,0,0,41.05,68.55Z"/><path class="cls-9" d="M41.05,68.55a21.28,21.28,0,0,1,1,2.11c2.2,6.56,6.66,9.48,13.51,8,5-1,7.65,1,9.1,5.55a16.56,16.56,0,0,0,2,3.79c1.89,2.9,4.34,4.52,8.07,3.71a32.73,32.73,0,0,1,5.62-.27c-.48,2.36-1.91,3.48-4.32,3.86-4.57.74-9.74,1.15-11.75-3.49C61,84.25,56.13,81.6,48.09,82.52c-4,.45-6.36-3-8-6.48C38.8,73.29,38.5,70.76,41.05,68.55Z"/><path class="cls-8" d="M147.66,50.75c2.54-3.24,5.35-3.42,9.15-.57,3.57,2.68,4.06,5.06,1.72,8.35-5.9.48-9-1.27-10.91-6.23l0-.87C147.61,51.2,147.63,51,147.66,50.75Z"/><path class="cls-8" d="M149.45,72h0c-6.8-.3-10.15-3-10.38-8.32,2.53-3,5.07-3.22,8.85-.34,2.56,2,5.06,4.31,2.44,8Z"/><path class="cls-6" d="M167.22,87.31c-5.08-.12-9.5-4.76-8.11-8,.26-.59.61-1.41,1.1-1.56.85-.27.8.79,1.13,1.29a11.65,11.65,0,0,0,6.5,4.78c1,.29,3-.6,2.77,1.16S168.37,87.17,167.22,87.31Z"/><path class="cls-9" d="M139.1,63.69c.23,5.34,3.58,8,10.38,8.32-1.21,4.13-4.21,3.61-7.19,2.6-3.9-1.33-6-4.82-4.92-7.79A24,24,0,0,1,139.1,63.69Z"/><path class="cls-6" d="M169.05,64.16c1.86,4.2,4.64,6.59,9,6.65.52,0,1.44,0,1.29.59a3.36,3.36,0,0,1-1.49,2c-3.28,1.54-6,.19-8.45-2C167.2,69.38,166.49,67,169.05,64.16Z"/><path class="cls-9" d="M147.62,52.3c1.95,5,5,6.71,10.91,6.23-2.48,4.07-5.19,4.72-9.3,2.14-2.74-1.72-4.7-3.84-2.84-7.34C146.63,52.89,147.2,52.64,147.62,52.3Z"/><path class="cls-9" d="M49,54l3.26,6.4c2.19,4.3,1.92,4.72-2.94,4.78-.5-1.44-.89-2.93-1.52-4.31A5.6,5.6,0,0,1,49,54Z"/><path class="cls-9" d="M78.87,81.76c-2.27-4.25-2.27-4.25,2.36-4.33l7.18-.11C86.93,82.45,82.26,80.72,78.87,81.76Z"/><path class="cls-9" d="M88.45,77.29a.64.64,0,0,1,.43-.37A.64.64,0,0,1,88.45,77.29Z"/><path class="cls-9" d="M149.45,72l.94-.65Z"/><path class="cls-9" d="M147.66,50.75c0,.23,0,.45-.07.68a2.3,2.3,0,0,1-.13-.5S147.59,50.81,147.66,50.75Z"/><path class="cls-6" d="M96.46,149.31c-8.37.44-16.73,1-25.1,1.3s-15.42-3.13-21.52-8.67a92,92,0,0,1-7.12-12.75c-.3-.67-1.07-1.41-.47-2.11s1.62-.28,2.45,0c7.84,3,15.85,4.33,24.24,3a49.08,49.08,0,0,1,6.65-.11l24.2-.66c.66.67,1.33,1.33,2,2,.51,3.24,2.52,6.07,2.13,9.62-.24,2.18-.54,4.12-2.08,5.73l-.7.71,0,0Z"/><path class="cls-3" d="M29.16,102.61c4,1.56,5.89,5.45,9.07,7.94,4.45,3.49,9.52,5.84,14.35,8.64-4.52,1-7.86-1.76-11.24-3.87a23.79,23.79,0,0,0-4.17-2.49C32.2,111.08,30.76,106.85,29.16,102.61Z"/><path class="cls-3" d="M57.11,120a4.68,4.68,0,0,1,3,1.31C59,121.17,57.47,121.88,57.11,120Z"/><path class="cls-3" d="M53.76,119.24l1.53.59C54.26,121,53.94,120.3,53.76,119.24Z"/><path class="cls-3" d="M26.47,98c.23.44.47.87.71,1.3C26.94,98.89,26.7,98.46,26.47,98Z"/><path class="cls-3" d="M27.82,100l.69,1.37Z"/><path class="cls-3" d="M28.49,101.29a1,1,0,0,1,.68,1.36C29,102.2,28.72,101.74,28.49,101.29Z"/><path class="cls-3" d="M27.14,99.28l.7.71Z"/><path class="cls-5" d="M141.85,118c.57-.7,1.38-.6,2.14-.62q12.42-.39,24.84-.77c8.14-.23,15.78-1.75,21.61-8.12-1.8,6.82-6.39,10.92-12.77,13.43-5.83,2.3-11.95,2.29-18,2.73-2.41.17-4.81.42-7.22.63A36.81,36.81,0,0,0,141.85,118Z"/><path class="cls-5" d="M96.46,149.31l4.7-2a38.22,38.22,0,0,1-6.77,11.24l-1.91.65c.9-2.31,2.44-4.42,2-7.12C94.25,150.63,95.75,150.21,96.46,149.31Z"/><path class="cls-5" d="M101.13,147.37l.7-.71Z"/><path class="cls-3" d="M170.22,85h0c-6.8-.3-10.15-3-10.39-8.32,2.54-3,5.08-3.22,8.85-.34,2.57,2,5.06,4.31,2.45,8Z"/><path class="cls-3" d="M178.89,71h0c-6.8-.3-10.16-3-10.39-8.32,2.53-3,5.08-3.22,8.85-.34,2.57,2,5.06,4.31,2.45,8Z"/><path class="cls-10" d="M351.31,142.72H265.59l-.08-29.35,35-39.81H272.65l-6.84-29.73h85.57l.07,29.66v.07h-.07L316.72,113h27.74Z"/><path class="cls-10" d="M411.08,78.08h40.37v30.4H411.08v4h40.37v29H369.92V45.09h81.46l.07,29H411.08Z"/><path class="cls-10" d="M555.38,101.66a21.52,21.52,0,0,1,5,1.48,19.08,19.08,0,0,1,5.27,3,16,16,0,0,1,5.71,12.9v24H528.9V123.84a11.3,11.3,0,0,0-2.45-7.56,10.35,10.35,0,0,0-5.34-3.27,18.63,18.63,0,0,0-7.86-.67v30.71H470.67V43.43H536q35.24,0,36.5,32.05Q572.81,94.17,555.38,101.66Zm-34-18.4a10.11,10.11,0,0,0,6.16-1.85A5.42,5.42,0,0,0,530.09,77a5.49,5.49,0,0,0-2.52-4.53,10.51,10.51,0,0,0-6.24-1.85H513.4V83.26Z"/><path class="cls-10" d="M633.25,77.76h41.2v31h-41.2v4.1h41.2v29.56h-83.2V44.1h83.13l.07,29.57h-41.2Z"/><path class="cls-10" d="M690.17,47.29h39.28v92H690.17Z"/></g></g></svg>