<svg xmlns="http://www.w3.org/2000/svg" viewBox="0 0 839.43 300"><defs><style>.cls-1{fill:#c7b7fd;}.cls-2{fill:#6bd7fd;}.cls-3{fill:#343f8b;}.cls-4{fill:#515393;}.cls-5{fill:#7969af;}.cls-6{fill:#6679fd;}.cls-7{fill:#fdfb93;}.cls-8{fill:#ad947b;}</style></defs><g id="Layer_2" data-name="Layer 2"><g id="Layer_1-2" data-name="Layer 1"><path class="cls-1" d="M446.12,188.58h-99L347,154.67l40.46-46H355.27l-7.91-34.34h98.85l.08,34.25v.09h-.08l-40,45.55h32.05Z"/><path class="cls-1" d="M499.33,113.45h47.84v36H499.33v4.75h47.84v34.34H450.54V74.35h96.55l.08,34.34H499.33Z"/><path class="cls-1" d="M648.48,141.07a24.45,24.45,0,0,1,5.78,1.7,21.56,21.56,0,0,1,6,3.49q6.54,5.52,6.54,14.78v27.54h-48.7v-22.1a13,13,0,0,0-2.8-8.67,12.11,12.11,0,0,0-6.12-3.74,21.29,21.29,0,0,0-9-.76V188.5H551.42V74.35h74.8q40.37,0,41.81,36.72Q668.47,132.49,648.48,141.07ZM609.56,120a11.54,11.54,0,0,0,7.05-2.12,6.21,6.21,0,0,0,2.89-5.1,6.28,6.28,0,0,0-2.89-5.19,12,12,0,0,0-7.14-2.12h-9.09V120Z"/><path class="cls-1" d="M721.49,113.45h47.85v36H721.49v4.75h47.85v34.34H672.71V74.35h96.55l.08,34.34H721.49Z"/><path class="cls-1" d="M773.59,74.35h48.79V188.58H773.59Z"/><circle class="cls-2" cx="156.68" cy="150" r="150"/><path class="cls-3" d="M228.83,45.78c18,5.47,35.44,12.22,48.32,26.89,11.47,13.06,18,29,25.52,44.42,5.65,11.56,2.94,22.4-2.23,33.15l-1.91.25c-5.55,3.38-11.16,6.38-17.81,7.25-18.6,2.41-37.35,2.41-56,3.8-26.79,2-53.65,2.4-80.45,4.75a278.92,278.92,0,0,1-36.07.93C80.9,166,59.59,154.11,44.12,131.94c-7.82-11.21-13.74-23.6-19.28-36.12-.58-1.31-.5-3.35-2.69-3.44-2-.09-2.43,1.78-3.42,2.9-2.27,2.62-2.31,7.3-7.08,7.59-.5-4,.36-7.88,1-11.78l-.05.07c1-.57,1.28-1.2.19-2C16.39,83.26,20,77.34,23.61,71.39,30,60.72,39.87,56,51.9,55.3q13.29-.77,26.59-1c2.63,0,4.68-1.14,6.85-2.22,1.79,1.69,4,1,6,1,21-.94,41.9-2.91,62.91-3.15,5.94-.07,11.86-.87,17.79-1.23q24.36-1.44,48.71-2.81C223.46,45.67,226.16,48.09,228.83,45.78Zm-99.15,69.55a1,1,0,0,0,.68-.59c3.52-7.62-4.36-21.22-12.63-20.37-12.37,1.27-21.22-.79-25.67-14.3C89.7,72.9,81.73,72.69,74.77,73.3c-3.54.32-6.63,1.14-7.46,5.24-3.19,3.18-3.77,6.75-1.9,10.87,1,2.19,1.61,4.54,2.4,6.81-2,.08-4.11.16-6.16.22-3.48.09-6.62.64-6.93,5.07-4,3.49-3.57,7.49-1.53,11.84,2.59,5.55,6.37,11,12.65,10.24,12.72-1.45,20.46,2.75,25.66,14.78,3.18,7.35,11.36,6.69,18.59,5.53,3.81-.61,6.06-2.37,6.83-6.1,2.71-1.79,2.81-4.23,1.61-6.9-1.28-2.86-2.66-5.67-4-8.5,5.35-1.64,12.74,1.09,15.08-7Zm80.11-21.51a36.84,36.84,0,0,0-2.73,5c-1.77,4.7,1.61,10.21,7.78,12.31,4.71,1.61,9.46,2.44,11.37-4.1l-.05,0,1.49-1c4.13-5.87.19-9.59-3.87-12.69C217.81,88.72,213.79,89.12,209.79,93.82Zm13.48-18c-.66.54-1.57.94-1.94,1.63-3,5.54.15,8.89,4.48,11.61,6.51,4.08,10.78,3.06,14.72-3.39,3.69-5.2,2.92-9-2.73-13.19-6-4.51-10.46-4.23-14.48.9-.11.09-.32.19-.31.27a5.38,5.38,0,0,0,.2.79Zm31,55.37c1.82-.21,5-.79,5.36-3.63s-2.87-1.38-4.39-1.84A18.4,18.4,0,0,1,245,118.14c-.52-.78-.44-2.46-1.78-2-.77.24-1.34,1.54-1.74,2.47C239.25,123.64,246.24,131,254.27,131.17Zm2.89-36.61c-4.05,4.56-2.92,8.26.62,11.49,3.8,3.47,8.17,5.61,13.36,3.18a5.25,5.25,0,0,0,2.35-3.22c.25-1-1.21-.92-2-.93C264.5,105,260.11,101.2,257.16,94.56Z"/><path class="cls-3" d="M55.63,232.51c-3.75-3.84-5.52-8.88-7.93-13.48Q27.08,179.76,6.75,140.34c-1.68-3.25-2.8-6.77-4.18-10.17,2.7,0,3.84-1.85,5.15-3.83,2.37-3.6,3.14-8.22,7-10.86q8.46,16.32,16.94,32.64l1.12,2-.05-.06,1.1,1.11,0-.05,1.1,2.16,0,0,1.08,2.15,0-.06c2.53,6.69,4.81,13.4,12.67,16.16,2.23.79,4.45,2.6,6.6,3.94,5.34,3.33,10.62,7.7,17.76,6.12l1.87.09c.29,1.66.8,2.77,2.43.91l2.87.24c.58,3,3,1.9,4.77,2.08,22,1,43.9-2.12,65.89-1.94a22.43,22.43,0,0,0-3.15,14.65q-19.14.52-38.28,1c-3.51.09-7.09-.37-10.51.18-13.27,2.14-25.94,0-38.34-4.7-1.32-.5-2.79-1.33-3.88-.06-1,1.1.27,2.28.75,3.34a145.63,145.63,0,0,0,11.25,20.16c-2.37,1.36-3.59,3.66-5.16,5.77C61.06,226.55,60.74,231.63,55.63,232.51Z"/><path class="cls-3" d="M298.53,150.49l1.91-.25q11.54,22.29,23.09,44.59c3.94,7.56,4.85,14.88-1.19,21.86-9.12,3.31-18.66,3.83-28.21,4.25-3.3.19-6.66.05-9.89.62-24.09,4.2-44.65-7.41-53.38-30.29,3.8-.34,7.61-.73,11.42-1,9.61-.7,19.3-.67,28.51-4.31,10.09-4,17.36-10.46,20.2-21.24C293.32,159.88,297.47,156,298.53,150.49Z"/><path class="cls-3" d="M254.29,240.6c-15.83-4.24-26.68-13.87-34-28.7-4.85-9.85-14.43-13.88-25.47-13.39-14.69.65-29.37,1.5-44.06,2.26-1-1.05-2.09-2.09-3.14-3.14A22.43,22.43,0,0,1,150.77,183l63.37-3.23a57.79,57.79,0,0,1,16.72,11.52c8.73,22.88,29.29,34.49,53.38,30.29,3.23-.57,6.59-.43,9.89-.62,2.28,6.79,9,10,12.68,15.64-10,3.37-20.41,2-30.61,3C268.93,240.3,261.6,240.29,254.29,240.6Z"/><path class="cls-3" d="M55.63,232.51c5.11-.88,5.43-6,7.82-9.16,1.57-2.11,2.79-4.41,5.16-5.77,9.66,8.76,20.74,14.2,34,13.71s26.47-1.36,39.7-2.06c-1.12,1.44-3.5,2.09-3.12,4.45.68,4.28-1.75,7.61-3.17,11.26-1.91.73-3.79,1.95-5.76,2.09-17.47,1.29-34.94,3.38-52.51,1.54C69.3,244.74,60.83,240.89,55.63,232.51Z"/><path class="cls-3" d="M14.71,115.48c-3.85,2.64-4.62,7.26-7,10.86-1.31,2-2.45,3.86-5.15,3.83C-.9,123-.69,115.55,2.2,108.33A55.15,55.15,0,0,1,12.64,91.09c-.63,3.9-1.49,7.78-1,11.77C11.3,107.4,13.81,111.25,14.71,115.48Z"/><path class="cls-3" d="M306.81,236.58c-3.68-5.65-10.4-8.85-12.68-15.64,9.55-.42,19.09-.94,28.21-4.25C317.55,223.62,315.77,232.91,306.81,236.58Z"/><path class="cls-3" d="M12.78,89.2c1.09.76.81,1.39-.19,2C12.66,90.51,12.72,89.85,12.78,89.2Z"/><path class="cls-3" d="M91.78,259.9l1,.68Z"/><path class="cls-3" d="M14.71,115.48c-.9-4.23-3.41-8.08-3.06-12.62,4.77-.28,4.81-5,7.08-7.58,1-1.12,1.42-3,3.42-2.9,2.19.09,2.11,2.13,2.69,3.44,5.54,12.52,11.46,24.91,19.28,36.12,15.47,22.17,36.78,34.1,64.07,35.28a278.92,278.92,0,0,0,36.07-.93c26.8-2.35,53.66-2.76,80.45-4.75,18.66-1.39,37.41-1.39,56-3.8,6.65-.87,12.26-3.87,17.81-7.25-1.06,5.51-5.21,9.39-7.54,14.22-9.21,10.07-21.3,12.48-34.17,12.85-13.1.36-26.2.79-39.3,1.21-1.2,0-2.48-.13-3.38,1L150.77,183c-22-.18-43.88,2.92-65.9,1.94a7.41,7.41,0,0,0-4.76-2.08l-2.88-.24-2.42-.91-1.87-.09c-7.63-4.43-15.64-8.15-22.69-13.67-5-3.94-8.08-10.09-14.34-12.55l0,.06a1.63,1.63,0,0,0-1.08-2.15l0,0-1.1-2.16,0,.05-1.1-1.11.05.06-1.12-2Q23.18,131.8,14.71,115.48Z"/><path class="cls-3" d="M129.68,115.33a1,1,0,0,1,.68-.59A1,1,0,0,1,129.68,115.33Z"/><path class="cls-3" d="M226.16,107l1.49-1Z"/><path class="cls-3" d="M223.32,73.36c0,.35-.07.71-.1,1.06a4.39,4.39,0,0,1-.21-.79C223,73.55,223.21,73.45,223.32,73.36Z"/><path class="cls-3" d="M142.35,229.23c-13.23.7-26.46,1.57-39.7,2.06s-24.38-4.95-34-13.71a145.63,145.63,0,0,1-11.25-20.16c-.48-1.06-1.7-2.24-.75-3.34,1.09-1.27,2.56-.44,3.88.06,12.4,4.68,25.07,6.84,38.34,4.7,3.42-.55,7-.09,10.51-.18q19.14-.48,38.28-1c1,1.05,2.1,2.09,3.14,3.14.81,5.12,4,9.61,3.38,15.21-.38,3.44-.86,6.51-3.29,9.06l-1.12,1.13.06,0Z"/><path class="cls-3" d="M35.91,155.38c6.26,2.46,9.31,8.61,14.34,12.55,7,5.52,15.06,9.24,22.69,13.67-7.14,1.58-12.42-2.79-17.76-6.12-2.15-1.34-4.37-3.15-6.6-3.94C40.72,168.78,38.44,162.07,35.91,155.38Z"/><path class="cls-3" d="M80.11,182.84a7.41,7.41,0,0,1,4.76,2.08C83.07,184.74,80.69,185.86,80.11,182.84Z"/><path class="cls-3" d="M74.81,181.69l2.42.91C75.61,184.46,75.1,183.35,74.81,181.69Z"/><path class="cls-3" d="M31.65,148.12l1.12,2Z"/><path class="cls-3" d="M33.78,151.17l1.1,2.16Z"/><path class="cls-3" d="M34.85,153.29a1.63,1.63,0,0,1,1.08,2.15Z"/><path class="cls-3" d="M32.72,150.11l1.1,1.11Z"/><path class="cls-3" d="M214.14,179.75c.9-1.11,2.18-.95,3.38-1,13.1-.42,26.2-.85,39.3-1.21,12.87-.37,25-2.78,34.17-12.85-2.84,10.78-10.11,17.27-20.2,21.24-9.21,3.64-18.9,3.61-28.51,4.31-3.81.28-7.62.67-11.42,1A57.79,57.79,0,0,0,214.14,179.75Z"/><path class="cls-3" d="M142.35,229.23l7.44-3.09a60.89,60.89,0,0,1-10.72,17.78l-3,1c1.42-3.66,3.85-7,3.17-11.27C138.85,231.32,141.23,230.67,142.35,229.23Z"/><path class="cls-3" d="M149.73,226.17l1.12-1.13Z"/><path class="cls-1" d="M226.7,50c17.12,5.19,33.62,11.6,45.83,25.5,10.88,12.4,17.08,27.54,24.21,42.13,5.35,11,2.78,21.25-2.12,31.44l-1.81.24c-5.26,3.21-10.58,6.06-16.89,6.88-17.64,2.28-35.43,2.29-53.13,3.6-25.39,1.89-50.87,2.27-76.29,4.5a264.61,264.61,0,0,1-34.21.89C86.41,164,66.2,152.72,51.53,131.69c-7.42-10.64-13-22.38-18.29-34.26-.55-1.24-.47-3.17-2.55-3.26-1.9-.09-2.31,1.69-3.24,2.76-2.16,2.47-2.19,6.92-6.72,7.18-.47-3.78.34-7.46.94-11.16l0,.06c.94-.53,1.21-1.13.17-1.86q5.15-8.45,10.28-16.89C38.17,64.15,47.5,59.66,58.91,59q12.6-.72,25.21-1c2.5,0,4.45-1.09,6.5-2.11,1.7,1.61,3.8,1,5.72.9,19.89-.89,39.74-2.76,59.67-3,5.62-.06,11.24-.82,16.87-1.16,15.39-.92,30.79-1.78,46.19-2.67C221.61,49.87,224.17,52.16,226.7,50Zm-94,66a.9.9,0,0,0,.63-.55c3.34-7.23-4.13-20.13-12-19.32-11.73,1.21-20.13-.75-24.35-13.57-2.24-6.8-9.79-7-16.4-6.41-3.35.3-6.28,1.07-7.07,5-3,3-3.58,6.4-1.81,10.31.94,2.08,1.54,4.31,2.29,6.47l-5.85.2c-3.3.09-6.28.61-6.57,4.81-3.84,3.31-3.38,7.1-1.45,11.23,2.46,5.26,6,10.4,12,9.71,12.06-1.37,19.4,2.61,24.33,14,3,7,10.77,6.34,17.63,5.24,3.61-.58,5.75-2.25,6.48-5.79,2.57-1.69,2.66-4,1.52-6.54-1.21-2.71-2.51-5.37-3.78-8.06,5.08-1.56,12.09,1,14.31-6.67Zm76-20.39a35.79,35.79,0,0,0-2.58,4.69c-1.68,4.46,1.52,9.69,7.38,11.68,4.46,1.52,9,2.3,10.78-3.9l0,0,1.41-1c3.92-5.57.18-9.09-3.67-12C216.26,90.7,212.44,91.08,208.64,95.54Zm12.79-17.09c-.63.51-1.49.89-1.84,1.54-2.8,5.26.14,8.43,4.25,11,6.17,3.88,10.23,2.9,14-3.21,3.5-4.93,2.77-8.5-2.58-12.52-5.7-4.27-9.93-4-13.74.86-.1.09-.3.18-.29.26a4.13,4.13,0,0,0,.19.75C221.4,77.58,221.41,78,221.43,78.45ZM250.84,131c1.72-.2,4.7-.75,5.08-3.44s-2.73-1.31-4.17-1.75A17.44,17.44,0,0,1,242,118.6c-.5-.74-.42-2.33-1.7-1.93-.73.22-1.26,1.46-1.64,2.34C236.58,123.82,243.22,130.78,250.84,131Zm2.73-34.73c-3.83,4.33-2.77,7.84.59,10.9,3.61,3.3,7.75,5.32,12.67,3a5,5,0,0,0,2.23-3.05c.24-.95-1.15-.88-1.92-.89C260.53,106.13,256.37,102.53,253.57,96.23Z"/><path class="cls-4" d="M62.44,227.07c-3.55-3.64-5.23-8.42-7.52-12.79Q35.36,177,16.08,139.65c-1.59-3.07-2.65-6.42-4-9.64,2.56,0,3.64-1.76,4.88-3.64,2.25-3.4,3-7.79,6.63-10.29L39.7,147,40.77,149l-.06-.06,1,1.06,0,0,1,2,0,0,1,2v-.05c2.39,6.35,4.56,12.71,12,15.33C57.87,170,60,171.71,62,173c5.06,3.16,10.07,7.3,16.84,5.81l1.78.08c.27,1.58.75,2.63,2.3.87l2.72.23c.55,2.86,2.8,1.79,4.52,2,20.88.93,41.64-2,62.49-1.85a21.26,21.26,0,0,0-3,13.9q-18.16.49-36.31,1c-3.32.08-6.72-.36-10,.16-12.58,2-24.6,0-36.36-4.45-1.25-.47-2.64-1.26-3.68-.06-.9,1,.25,2.17.71,3.17a138.66,138.66,0,0,0,10.68,19.12c-2.25,1.28-3.41,3.47-4.9,5.47C67.59,221.42,67.29,226.23,62.44,227.07Z"/><path class="cls-5" d="M292.81,149.28l1.81-.24c7.3,14.1,14.56,28.22,21.9,42.3,3.74,7.16,4.6,14.1-1.13,20.72-8.65,3.14-17.69,3.64-26.75,4a83.31,83.31,0,0,0-9.38.59c-22.85,4-42.35-7-50.63-28.73,3.61-.32,7.21-.69,10.83-.95,9.12-.66,18.3-.64,27-4.08,9.57-3.78,16.46-9.92,19.16-20.15C287.87,158.18,291.8,154.51,292.81,149.28Z"/><path class="cls-3" d="M250.85,234.74c-15-4-25.3-13.15-32.24-27.22-4.6-9.34-13.69-13.16-24.16-12.7-13.93.62-27.85,1.42-41.78,2.15l-3-3a21.26,21.26,0,0,1,3-13.9l60.1-3.06A54.83,54.83,0,0,1,228.63,188c8.28,21.71,27.78,32.72,50.63,28.73a83.31,83.31,0,0,1,9.38-.59c2.16,6.44,8.53,9.48,12,14.84-9.45,3.2-19.35,1.92-29,2.86C264.74,234.45,257.78,234.45,250.85,234.74Z"/><path class="cls-3" d="M62.44,227.07c4.85-.84,5.15-5.65,7.42-8.69,1.49-2,2.65-4.19,4.9-5.47,9.16,8.31,19.66,13.46,32.28,13s25.1-1.29,37.65-1.95c-1.06,1.36-3.32,2-3,4.22.64,4-1.66,7.22-3,10.68-1.82.69-3.61,1.85-5.47,2-16.57,1.22-33.13,3.21-49.8,1.46C75.41,238.67,67.37,235,62.44,227.07Z"/><path class="cls-5" d="M23.63,116.08C20,118.58,19.25,123,17,126.37c-1.24,1.88-2.32,3.67-4.88,3.64-3.29-6.85-3.09-13.87-.35-20.71A52.31,52.31,0,0,1,21.67,93c-.6,3.7-1.41,7.38-.94,11.16C20.4,108.41,22.78,112.06,23.63,116.08Z"/><path class="cls-4" d="M300.66,230.93c-3.49-5.36-9.86-8.4-12-14.84,9.06-.39,18.1-.89,26.75-4C310.85,218.64,309.16,227.45,300.66,230.93Z"/><path class="cls-5" d="M21.8,91.15c1,.73.77,1.33-.17,1.86C21.69,92.39,21.74,91.77,21.8,91.15Z"/><path class="cls-2" d="M96.73,253.05l1,.64Z"/><path class="cls-6" d="M23.63,116.08c-.85-4-3.23-7.67-2.9-12,4.53-.26,4.56-4.71,6.72-7.18.93-1.07,1.34-2.85,3.24-2.76,2.08.09,2,2,2.55,3.26,5.26,11.88,10.87,23.62,18.29,34.26,14.67,21,34.88,32.34,60.76,33.46a264.61,264.61,0,0,0,34.21-.89c25.42-2.23,50.9-2.61,76.29-4.5,17.7-1.31,35.49-1.32,53.13-3.6,6.31-.82,11.63-3.67,16.89-6.88-1,5.23-4.94,8.9-7.15,13.49-8.74,9.55-20.2,11.84-32.41,12.18-12.42.35-24.85.76-37.27,1.15-1.14,0-2.36-.12-3.21.93l-60.1,3.06c-20.85-.16-41.61,2.78-62.49,1.84a7,7,0,0,0-4.52-2l-2.73-.23-2.29-.87-1.78-.08c-7.24-4.21-14.83-7.73-21.52-13-4.77-3.73-7.66-9.56-13.59-11.9V154a1.53,1.53,0,0,0-1-2l0,0c-.34-.69-.69-1.37-1-2l0,0-1-1.06.06.06c-.36-.65-.71-1.3-1.07-1.94Z"/><path class="cls-7" d="M61.58,102.83c.29-4.2,3.27-4.72,6.57-4.81l5.85-.2c7.29-.09,7.69-.73,4.41-7.17L73.52,81c.79-3.89,3.72-4.66,7.07-5,6.61-.59,14.16-.39,16.4,6.41,4.22,12.82,12.62,14.78,24.35,13.57,7.84-.81,15.31,12.09,12,19.32a.93.93,0,0,0-.64.55l-.06,0-10.77.18c-6.95.11-6.95.11-3.54,6.49,1.27,2.69,2.57,5.35,3.78,8.06,1.14,2.54,1,4.85-1.52,6.54-2.82.11-5.72-.19-8.43.4-5.6,1.22-9.26-1.21-12.11-5.57A24.85,24.85,0,0,1,97,126.38c-2.17-6.82-6.22-9.87-13.64-8.32-10.27,2.16-17-2.23-20.28-12.08A28,28,0,0,0,61.58,102.83Z"/><path class="cls-8" d="M61.58,102.83A28,28,0,0,1,63.05,106c3.31,9.85,10,14.24,20.28,12.08,7.42-1.55,11.47,1.5,13.64,8.32a24.85,24.85,0,0,0,3.06,5.69c2.85,4.36,6.51,6.79,12.11,5.57,2.71-.59,5.61-.29,8.43-.4-.73,3.54-2.87,5.21-6.48,5.79-6.86,1.1-14.61,1.72-17.63-5.24-4.93-11.41-12.27-15.39-24.33-14-6,.69-9.54-4.45-12-9.71C58.2,109.93,57.74,106.14,61.58,102.83Z"/><path class="cls-7" d="M221.48,76.13c3.81-4.87,8-5.13,13.74-.86,5.35,4,6.08,7.59,2.58,12.52-8.85.72-13.45-1.9-16.37-9.34,0-.44,0-.87-.05-1.31S221.45,76.47,221.48,76.13Z"/><path class="cls-7" d="M224.18,108l0,0c-10.2-.44-15.23-4.47-15.58-12.47,3.8-4.46,7.62-4.84,13.28-.51,3.85,2.94,7.59,6.46,3.67,12Z"/><path class="cls-5" d="M250.84,131c-7.62-.18-14.26-7.14-12.17-12,.38-.88.91-2.12,1.64-2.34,1.28-.4,1.2,1.19,1.7,1.93a17.44,17.44,0,0,0,9.74,7.17c1.44.44,4.54-.89,4.17,1.75S252.56,130.76,250.84,131Z"/><path class="cls-8" d="M208.64,95.54c.35,8,5.38,12,15.58,12.47-1.81,6.2-6.32,5.42-10.78,3.9-5.86-2-9.06-7.22-7.38-11.68A35.79,35.79,0,0,1,208.64,95.54Z"/><path class="cls-5" d="M253.57,96.23c2.8,6.3,7,9.9,13.57,10,.77,0,2.16-.06,1.92.89a5,5,0,0,1-2.23,3.05c-4.92,2.3-9.06.28-12.67-3C250.8,104.07,249.74,100.56,253.57,96.23Z"/><path class="cls-8" d="M221.43,78.45c2.92,7.44,7.52,10.06,16.37,9.34-3.73,6.11-7.79,7.09-14,3.21-4.11-2.58-7.05-5.75-4.25-11C219.94,79.34,220.8,79,221.43,78.45Z"/><path class="cls-8" d="M73.52,81l4.89,9.61c3.28,6.44,2.88,7.08-4.41,7.17-.75-2.16-1.35-4.39-2.29-6.47C69.94,87.44,70.5,84.06,73.52,81Z"/><path class="cls-8" d="M118.31,122.64c-3.41-6.38-3.41-6.38,3.54-6.49l10.77-.18C130.4,123.67,123.39,121.08,118.31,122.64Z"/><path class="cls-8" d="M132.68,115.93a.93.93,0,0,1,.64-.55A.93.93,0,0,1,132.68,115.93Z"/><path class="cls-8" d="M224.18,108l1.41-1Z"/><path class="cls-8" d="M221.48,76.13c0,.34-.06.67-.1,1a4.13,4.13,0,0,1-.19-.75C221.18,76.31,221.38,76.22,221.48,76.13Z"/><path class="cls-5" d="M144.69,224c-12.55.66-25.09,1.49-37.65,1.95s-23.12-4.69-32.28-13a138.66,138.66,0,0,1-10.68-19.12c-.46-1-1.61-2.12-.71-3.17,1-1.2,2.43-.41,3.68.06,11.76,4.43,23.78,6.49,36.36,4.45,3.25-.52,6.65-.08,10-.16q18.15-.47,36.31-1l3,3c.76,4.85,3.78,9.11,3.2,14.42-.36,3.27-.82,6.18-3.12,8.6-.36.35-.71.71-1.06,1.06l.06,0Z"/><path class="cls-3" d="M43.75,153.92c5.93,2.34,8.82,8.17,13.59,11.9,6.69,5.24,14.28,8.76,21.52,13C72.09,180.28,67.08,176.14,62,173c-2-1.27-4.15-3-6.26-3.73C48.31,166.63,46.14,160.27,43.75,153.92Z"/><path class="cls-3" d="M85.66,180a7,7,0,0,1,4.52,2C88.46,181.76,86.21,182.83,85.66,180Z"/><path class="cls-3" d="M80.64,178.87l2.29.87C81.39,181.5,80.91,180.45,80.64,178.87Z"/><path class="cls-3" d="M39.7,147c.36.64.71,1.29,1.07,1.94C40.41,148.33,40.06,147.68,39.7,147Z"/><path class="cls-3" d="M41.73,149.93c.34.68.69,1.36,1,2C42.42,151.29,42.07,150.61,41.73,149.93Z"/><path class="cls-3" d="M42.74,151.94a1.53,1.53,0,0,1,1,2Z"/><path class="cls-3" d="M40.71,148.92l1,1.06Z"/><path class="cls-4" d="M212.77,177c.85-1.05,2.07-.9,3.21-.93,12.42-.39,24.85-.8,37.27-1.15,12.21-.34,23.67-2.63,32.41-12.18-2.7,10.23-9.59,16.37-19.16,20.15-8.74,3.44-17.92,3.42-27,4.08-3.62.26-7.22.63-10.83.95A54.83,54.83,0,0,0,212.77,177Z"/><path class="cls-4" d="M144.69,224l7.06-2.93a58,58,0,0,1-10.17,16.86l-2.85,1c1.34-3.46,3.64-6.63,3-10.68C141.37,225.94,143.63,225.32,144.69,224Z"/><path class="cls-4" d="M151.69,221.05c.35-.35.7-.71,1.06-1.06C152.39,220.34,152,220.7,151.69,221.05Z"/><path class="cls-3" d="M255.33,127.47l0,0C245.17,127,240.14,123,239.8,115c3.79-4.46,7.61-4.83,13.27-.51,3.85,3,7.59,6.47,3.67,12Z"/><path class="cls-3" d="M268.33,106.47l0,0C258.17,106,253.14,102,252.8,94c3.79-4.46,7.61-4.83,13.27-.51,3.85,3,7.59,6.47,3.67,12Z"/><path class="cls-3" d="M463.17,178.39h-99l-.08-33.91,40.45-46H372.32l-7.9-34.34h98.84l.08,34.26v.08h-.08l-40,45.56h32Z"/><path class="cls-3" d="M516.38,103.26h47.85v36H516.38v4.76h47.85v34.33H467.59V64.16h96.55l.09,34.34H516.38Z"/><path class="cls-3" d="M665.54,130.88a24.59,24.59,0,0,1,5.78,1.7,21.64,21.64,0,0,1,6,3.49q6.55,5.52,6.55,14.79v27.53H635.2v-22.1a13,13,0,0,0-2.81-8.66,11.89,11.89,0,0,0-6.12-3.74,21.27,21.27,0,0,0-9-.77v35.19H568.48V64.16h74.79q40.37,0,41.82,36.72Q685.51,122.3,665.54,130.88ZM626.61,109.8a11.57,11.57,0,0,0,7.06-2.12,6,6,0,0,0,0-10.28,12,12,0,0,0-7.14-2.13h-9.1V109.8Z"/><path class="cls-3" d="M738.55,103.26H786.4v36H738.55v4.76H786.4v34.33H689.76V64.16h96.55l.09,34.34H738.55Z"/><path class="cls-3" d="M790.65,64.16h48.78V178.39H790.65Z"/></g></g></svg>